<svg xmlns="http://www.w3.org/2000/svg" viewBox="0 0 1920 945" preserveAspectRatio="xMidYMid" width="1920" height="945" xmlns:xlink="http://www.w3.org/1999/xlink" style="shape-rendering:auto;display:block;background-position-x:0%;background-position-y:0%;background-size:auto;background-origin:padding-box;background-clip:border-box;background:scroll rgb(26, 27, 32) none  repeat;width:1920px;height:945px;;animation:none"><g><g transform="matrix(0.9659258262890683,0.25881904510252074,-0.25881904510252074,0.9659258262890683,155.00320557343548,-137.86623622000468)" style="transform:matrix(0.965926, 0.258819, -0.258819, 0.965926, 155.003, -137.866);;animation:none"><path stroke-width="2" stroke-opacity="0" stroke="rgb(98, 82, 197)" fill="none" d="M -480 -71 C 0 -71 480 71 960 71 C 1440 71 1920 -71 2400 -71 C 2880 -71 3360 71 3840 71 C 4320 71 4800 -71 5280 -71" transform="matrix(1,0,0,1,0,0)" style="fill:none;stroke:rgb(98, 82, 197);transform:matrix(1, 0, 0, 1, 0, 0);;animation:none"></path></g>
<g transform="matrix(0.9659258262890683,0.25881904510252074,-0.25881904510252074,0.9659258262890683,155.00320557343548,615.6137442487453)" style="transform:matrix(0.965926, 0.258819, -0.258819, 0.965926, 155.003, 615.614);;animation:none"><path stroke-width="2" stroke-opacity="0" stroke="rgb(98, 82, 197)" fill="none" d="M -480 -70.9783 C 0 -70.9783 480 70.9783 960 70.9783 C 1440 70.9783 1920 -70.9783 2400 -70.9783 C 2880 -70.9783 3360 70.9783 3840 70.9783 C 4320 70.9783 4800 -70.9783 5280 -70.9783" transform="matrix(1,0,0,1,-15.359759330749512,0)" style="fill:none;stroke:rgb(98, 82, 197);transform:matrix(1, 0, 0, 1, -15.3598, 0);;animation:none"></path></g>
<g transform="matrix(0.9659258262890683,0.25881904510252074,-0.25881904510252074,0.9659258262890683,155.00320557343548,-132.82623530447734)" style="transform:matrix(0.965926, 0.258819, -0.258819, 0.965926, 155.003, -132.826);;animation:none"><path stroke-width="2" stroke-opacity="0" stroke="rgb(98, 82, 197)" fill="none" d="M -480 -70.9122 C 0 -70.9122 480 70.9122 960 70.9122 C 1440 70.9122 1920 -70.9122 2400 -70.9122 C 2880 -70.9122 3360 70.9122 3840 70.9122 C 4320 70.9122 4800 -70.9122 5280 -70.9122" transform="matrix(1,0,0,1,-30.719518661499023,0)" style="fill:none;stroke:rgb(98, 82, 197);transform:matrix(1, 0, 0, 1, -30.7195, 0);;animation:none"></path></g>
<g transform="matrix(0.9659258262890683,0.25881904510252074,-0.25881904510252074,0.9659258262890683,155.00320557343548,610.5737662214016)" style="transform:matrix(0.965926, 0.258819, -0.258819, 0.965926, 155.003, 610.574);;animation:none"><path stroke-width="2" stroke-opacity="0" stroke="rgb(98, 82, 197)" fill="none" d="M -480 -70.8005 C 0 -70.8005 480 70.8005 960 70.8005 C 1440 70.8005 1920 -70.8005 2400 -70.8005 C 2880 -70.8005 3360 70.8005 3840 70.8005 C 4320 70.8005 4800 -70.8005 5280 -70.8005" transform="matrix(1,0,0,1,-46.08000183105469,0)" style="fill:none;stroke:rgb(98, 82, 197);transform:matrix(1, 0, 0, 1, -46.08, 0);;animation:none"></path></g>
<g transform="matrix(0.9659258262890683,0.25881904510252074,-0.25881904510252074,0.9659258262890683,155.00320557343548,-127.78623438894999)" style="transform:matrix(0.965926, 0.258819, -0.258819, 0.965926, 155.003, -127.786);;animation:none"><path stroke-width="2" stroke-opacity="0" stroke="rgb(97, 83, 197)" fill="none" d="M -480 -70.6418 C 0 -70.6418 480 70.6418 960 70.6418 C 1440 70.6418 1920 -70.6418 2400 -70.6418 C 2880 -70.6418 3360 70.6418 3840 70.6418 C 4320 70.6418 4800 -70.6418 5280 -70.6418" transform="matrix(1,0,0,1,-61.43975830078125,0)" style="fill:none;stroke:rgb(97, 83, 197);transform:matrix(1, 0, 0, 1, -61.4398, 0);;animation:none"></path></g>
<g transform="matrix(0.9659258262890683,0.25881904510252074,-0.25881904510252074,0.9659258262890683,155.00320557343548,605.5337881940578)" style="transform:matrix(0.965926, 0.258819, -0.258819, 0.965926, 155.003, 605.534);;animation:none"><path stroke-width="2" stroke-opacity="0" stroke="rgb(97, 83, 197)" fill="none" d="M -480 -70.4348 C 0 -70.4348 480 70.4348 960 70.4348 C 1440 70.4348 1920 -70.4348 2400 -70.4348 C 2880 -70.4348 3360 70.4348 3840 70.4348 C 4320 70.4348 4800 -70.4348 5280 -70.4348" transform="matrix(1,0,0,1,-76.79952239990234,0)" style="fill:none;stroke:rgb(97, 83, 197);transform:matrix(1, 0, 0, 1, -76.7995, 0);;animation:none"></path></g>
<g transform="matrix(0.9659258262890683,0.25881904510252074,-0.25881904510252074,0.9659258262890683,155.00320557343548,-122.74623347342265)" style="transform:matrix(0.965926, 0.258819, -0.258819, 0.965926, 155.003, -122.746);;animation:none"><path stroke-width="2" stroke-opacity="0" stroke="rgb(97, 84, 198)" fill="none" d="M -480 -70.1779 C 0 -70.1779 480 70.1779 960 70.1779 C 1440 70.1779 1920 -70.1779 2400 -70.1779 C 2880 -70.1779 3360 70.1779 3840 70.1779 C 4320 70.1779 4800 -70.1779 5280 -70.1779" transform="matrix(1,0,0,1,-92.16000366210938,0)" style="fill:none;stroke:rgb(97, 84, 198);transform:matrix(1, 0, 0, 1, -92.16, 0);;animation:none"></path></g>
<g transform="matrix(0.9659258262890683,0.25881904510252074,-0.25881904510252074,0.9659258262890683,155.00320557343548,600.4937491315578)" style="transform:matrix(0.965926, 0.258819, -0.258819, 0.965926, 155.003, 600.494);;animation:none"><path stroke-width="2" stroke-opacity="0" stroke="rgb(96, 85, 198)" fill="none" d="M -480 -69.8699 C 0 -69.8699 480 69.8699 960 69.8699 C 1440 69.8699 1920 -69.8699 2400 -69.8699 C 2880 -69.8699 3360 69.8699 3840 69.8699 C 4320 69.8699 4800 -69.8699 5280 -69.8699" transform="matrix(1,0,0,1,-107.51976013183594,0)" style="fill:none;stroke:rgb(96, 85, 198);transform:matrix(1, 0, 0, 1, -107.52, 0);;animation:none"></path></g>
<g transform="matrix(0.9659258262890683,0.25881904510252074,-0.25881904510252074,0.9659258262890683,155.00320557343548,-117.7062325578953)" style="transform:matrix(0.965926, 0.258819, -0.258819, 0.965926, 155.003, -117.706);;animation:none"><path stroke-width="2" stroke-opacity="0" stroke="rgb(95, 86, 198)" fill="none" d="M -480 -69.509 C 0 -69.509 480 69.509 960 69.509 C 1440 69.509 1920 -69.509 2400 -69.509 C 2880 -69.509 3360 69.509 3840 69.509 C 4320 69.509 4800 -69.509 5280 -69.509" transform="matrix(1,0,0,1,-122.8795166015625,0)" style="fill:none;stroke:rgb(95, 86, 198);transform:matrix(1, 0, 0, 1, -122.88, 0);;animation:none"></path></g>
<g transform="matrix(0.9659258262890683,0.25881904510252074,-0.25881904510252074,0.9659258262890683,155.00320557343548,595.4537711042141)" style="transform:matrix(0.965926, 0.258819, -0.258819, 0.965926, 155.003, 595.454);;animation:none"><path stroke-width="2" stroke-opacity="0" stroke="rgb(95, 87, 198)" fill="none" d="M -480 -69.0938 C 0 -69.0938 480 69.0938 960 69.0938 C 1440 69.0938 1920 -69.0938 2400 -69.0938 C 2880 -69.0938 3360 69.0938 3840 69.0938 C 4320 69.0938 4800 -69.0938 5280 -69.0938" transform="matrix(1,0,0,1,-138.24000549316406,0)" style="fill:none;stroke:rgb(95, 87, 198);transform:matrix(1, 0, 0, 1, -138.24, 0);;animation:none"></path></g>
<g transform="matrix(0.9659258262890683,0.25881904510252074,-0.25881904510252074,0.9659258262890683,155.00320557343548,-112.66623927176249)" style="transform:matrix(0.965926, 0.258819, -0.258819, 0.965926, 155.003, -112.666);;animation:none"><path stroke-width="2" stroke-opacity="0" stroke="rgb(94, 88, 199)" fill="none" d="M -480 -68.6225 C 0 -68.6225 480 68.6225 960 68.6225 C 1440 68.6225 1920 -68.6225 2400 -68.6225 C 2880 -68.6225 3360 68.6225 3840 68.6225 C 4320 68.6225 4800 -68.6225 5280 -68.6225" transform="matrix(1,0,0,1,-153.59976196289062,0)" style="fill:none;stroke:rgb(94, 88, 199);transform:matrix(1, 0, 0, 1, -153.6, 0);;animation:none"></path></g>
<g transform="matrix(0.9659258262890683,0.25881904510252074,-0.25881904510252074,0.9659258262890683,155.00320557343548,590.4137930768703)" style="transform:matrix(0.965926, 0.258819, -0.258819, 0.965926, 155.003, 590.414);;animation:none"><path stroke-width="2" stroke-opacity="0" stroke="rgb(93, 89, 199)" fill="none" d="M -480 -68.0936 C 0 -68.0936 480 68.0936 960 68.0936 C 1440 68.0936 1920 -68.0936 2400 -68.0936 C 2880 -68.0936 3360 68.0936 3840 68.0936 C 4320 68.0936 4800 -68.0936 5280 -68.0936" transform="matrix(1,0,0,1,-168.9595184326172,0)" style="fill:none;stroke:rgb(93, 89, 199);transform:matrix(1, 0, 0, 1, -168.96, 0);;animation:none"></path></g>
<g transform="matrix(0.9659258262890683,0.25881904510252074,-0.25881904510252074,0.9659258262890683,155.00320557343548,-107.62623835623515)" style="transform:matrix(0.965926, 0.258819, -0.258819, 0.965926, 155.003, -107.626);;animation:none"><path stroke-width="2" stroke-opacity="0" stroke="rgb(92, 91, 200)" fill="none" d="M -480 -67.5053 C 0 -67.5053 480 67.5053 960 67.5053 C 1440 67.5053 1920 -67.5053 2400 -67.5053 C 2880 -67.5053 3360 67.5053 3840 67.5053 C 4320 67.5053 4800 -67.5053 5280 -67.5053" transform="matrix(1,0,0,1,-184.32000732421875,0)" style="fill:none;stroke:rgb(92, 91, 200);transform:matrix(1, 0, 0, 1, -184.32, 0);;animation:none"></path></g>
<g transform="matrix(0.9659258262890683,0.25881904510252074,-0.25881904510252074,0.9659258262890683,155.00320557343548,585.3737540143703)" style="transform:matrix(0.965926, 0.258819, -0.258819, 0.965926, 155.003, 585.374);;animation:none"><path stroke-width="2" stroke-opacity="0" stroke="rgb(91, 92, 200)" fill="none" d="M -480 -66.8558 C 0 -66.8558 480 66.8558 960 66.8558 C 1440 66.8558 1920 -66.8558 2400 -66.8558 C 2880 -66.8558 3360 66.8558 3840 66.8558 C 4320 66.8558 4800 -66.8558 5280 -66.8558" transform="matrix(1,0,0,1,-199.67974853515625,0)" style="fill:none;stroke:rgb(91, 92, 200);transform:matrix(1, 0, 0, 1, -199.68, 0);;animation:none"></path></g>
<g transform="matrix(0.9659258262890683,0.25881904510252074,-0.25881904510252074,0.9659258262890683,155.00320557343548,-102.5862374407078)" style="transform:matrix(0.965926, 0.258819, -0.258819, 0.965926, 155.003, -102.586);;animation:none"><path stroke-width="2" stroke-opacity="0" stroke="rgb(89, 94, 201)" fill="none" d="M -480 -66.1434 C 0 -66.1434 480 66.1434 960 66.1434 C 1440 66.1434 1920 -66.1434 2400 -66.1434 C 2880 -66.1434 3360 66.1434 3840 66.1434 C 4320 66.1434 4800 -66.1434 5280 -66.1434" transform="matrix(1,0,0,1,-215.03952026367188,0)" style="fill:none;stroke:rgb(89, 94, 201);transform:matrix(1, 0, 0, 1, -215.04, 0);;animation:none"></path></g>
<g transform="matrix(0.9659258262890683,0.25881904510252074,-0.25881904510252074,0.9659258262890683,155.00320557343548,580.3337759870266)" style="transform:matrix(0.965926, 0.258819, -0.258819, 0.965926, 155.003, 580.334);;animation:none"><path stroke-width="2" stroke-opacity="0" stroke="rgb(88, 96, 202)" fill="none" d="M -480 -65.3661 C 0 -65.3661 480 65.3661 960 65.3661 C 1440 65.3661 1920 -65.3661 2400 -65.3661 C 2880 -65.3661 3360 65.3661 3840 65.3661 C 4320 65.3661 4800 -65.3661 5280 -65.3661" transform="matrix(1,0,0,1,-230.39999389648438,0)" style="fill:none;stroke:rgb(88, 96, 202);transform:matrix(1, 0, 0, 1, -230.4, 0);;animation:none"></path></g>
<g transform="matrix(0.9659258262890683,0.25881904510252074,-0.25881904510252074,0.9659258262890683,155.00320557343548,-97.54622889578593)" style="transform:matrix(0.965926, 0.258819, -0.258819, 0.965926, 155.003, -97.5462);;animation:none"><path stroke-width="2" stroke-opacity="0" stroke="rgb(86, 99, 202)" fill="none" d="M -480 -64.5221 C 0 -64.5221 480 64.5221 960 64.5221 C 1440 64.5221 1920 -64.5221 2400 -64.5221 C 2880 -64.5221 3360 64.5221 3840 64.5221 C 4320 64.5221 4800 -64.5221 5280 -64.5221" transform="matrix(1,0,0,1,-245.759765625,0)" style="fill:none;stroke:rgb(86, 99, 202);transform:matrix(1, 0, 0, 1, -245.76, 0);;animation:none"></path></g>
<g transform="matrix(0.9659258262890683,0.25881904510252074,-0.25881904510252074,0.9659258262890683,155.00320557343548,575.2937369245266)" style="transform:matrix(0.965926, 0.258819, -0.258819, 0.965926, 155.003, 575.294);;animation:none"><path stroke-width="2" stroke-opacity="0" stroke="rgb(84, 101, 203)" fill="none" d="M -480 -63.6096 C 0 -63.6096 480 63.6096 960 63.6096 C 1440 63.6096 1920 -63.6096 2400 -63.6096 C 2880 -63.6096 3360 63.6096 3840 63.6096 C 4320 63.6096 4800 -63.6096 5280 -63.6096" transform="matrix(1,0,0,1,-261.1195373535156,0)" style="fill:none;stroke:rgb(84, 101, 203);transform:matrix(1, 0, 0, 1, -261.12, 0);;animation:none"></path></g>
<g transform="matrix(0.9659258262890683,0.25881904510252074,-0.25881904510252074,0.9659258262890683,155.00320557343548,-92.50623560965312)" style="transform:matrix(0.965926, 0.258819, -0.258819, 0.965926, 155.003, -92.5063);;animation:none"><path stroke-width="2" stroke-opacity="0" stroke="rgb(82, 104, 204)" fill="none" d="M -480 -62.6265 C 0 -62.6265 480 62.6265 960 62.6265 C 1440 62.6265 1920 -62.6265 2400 -62.6265 C 2880 -62.6265 3360 62.6265 3840 62.6265 C 4320 62.6265 4800 -62.6265 5280 -62.6265" transform="matrix(1,0,0,1,-276.4800109863281,0)" style="fill:none;stroke:rgb(82, 104, 204);transform:matrix(1, 0, 0, 1, -276.48, 0);;animation:none"></path></g>
<g transform="matrix(0.9659258262890683,0.25881904510252074,-0.25881904510252074,0.9659258262890683,155.00320557343548,570.2537588971828)" style="transform:matrix(0.965926, 0.258819, -0.258819, 0.965926, 155.003, 570.254);;animation:none"><path stroke-width="2" stroke-opacity="0" stroke="rgb(80, 107, 205)" fill="none" d="M -480 -61.5709 C 0 -61.5709 480 61.5709 960 61.5709 C 1440 61.5709 1920 -61.5709 2400 -61.5709 C 2880 -61.5709 3360 61.5709 3840 61.5709 C 4320 61.5709 4800 -61.5709 5280 -61.5709" transform="matrix(1,0,0,1,-291.83978271484375,0)" style="fill:none;stroke:rgb(80, 107, 205);transform:matrix(1, 0, 0, 1, -291.84, 0);;animation:none"></path></g>
<g transform="matrix(0.9659258262890683,0.25881904510252074,-0.25881904510252074,0.9659258262890683,155.00320557343548,-87.4662423235203)" style="transform:matrix(0.965926, 0.258819, -0.258819, 0.965926, 155.003, -87.4662);;animation:none"><path stroke-width="2" stroke-opacity="0" stroke="rgb(78, 109, 206)" fill="none" d="M -480 -60.441 C 0 -60.441 480 60.441 960 60.441 C 1440 60.441 1920 -60.441 2400 -60.441 C 2880 -60.441 3360 60.441 3840 60.441 C 4320 60.441 4800 -60.441 5280 -60.441" transform="matrix(1,0,0,1,-307.19952392578125,0)" style="fill:none;stroke:rgb(78, 109, 206);transform:matrix(1, 0, 0, 1, -307.2, 0);;animation:none"></path></g>
<g transform="matrix(0.9659258262890683,0.25881904510252074,-0.25881904510252074,0.9659258262890683,155.00320557343548,565.2137808698391)" style="transform:matrix(0.965926, 0.258819, -0.258819, 0.965926, 155.003, 565.214);;animation:none"><path stroke-width="2" stroke-opacity="0" stroke="rgb(76, 113, 207)" fill="none" d="M -480 -59.2347 C 0 -59.2347 480 59.2347 960 59.2347 C 1440 59.2347 1920 -59.2347 2400 -59.2347 C 2880 -59.2347 3360 59.2347 3840 59.2347 C 4320 59.2347 4800 -59.2347 5280 -59.2347" transform="matrix(1,0,0,1,-322.55999755859375,0)" style="fill:none;stroke:rgb(76, 113, 207);transform:matrix(1, 0, 0, 1, -322.56, 0);;animation:none"></path></g>
<g transform="matrix(0.9659258262890683,0.25881904510252074,-0.25881904510252074,0.9659258262890683,155.00320557343548,-82.42623377859843)" style="transform:matrix(0.965926, 0.258819, -0.258819, 0.965926, 155.003, -82.4262);;animation:none"><path stroke-width="2" stroke-opacity="0" stroke="rgb(73, 116, 208)" fill="none" d="M -480 -57.9503 C 0 -57.9503 480 57.9503 960 57.9503 C 1440 57.9503 1920 -57.9503 2400 -57.9503 C 2880 -57.9503 3360 57.9503 3840 57.9503 C 4320 57.9503 4800 -57.9503 5280 -57.9503" transform="matrix(1,0,0,1,-337.9197692871094,0)" style="fill:none;stroke:rgb(73, 116, 208);transform:matrix(1, 0, 0, 1, -337.92, 0);;animation:none"></path></g>
<g transform="matrix(0.9659258262890683,0.25881904510252074,-0.25881904510252074,0.9659258262890683,155.00320557343548,560.1737418073391)" style="transform:matrix(0.965926, 0.258819, -0.258819, 0.965926, 155.003, 560.174);;animation:none"><path stroke-width="2" stroke-opacity="0" stroke="rgb(71, 119, 209)" fill="none" d="M -480 -56.5859 C 0 -56.5859 480 56.5859 960 56.5859 C 1440 56.5859 1920 -56.5859 2400 -56.5859 C 2880 -56.5859 3360 56.5859 3840 56.5859 C 4320 56.5859 4800 -56.5859 5280 -56.5859" transform="matrix(1,0,0,1,-353.2795104980469,0)" style="fill:none;stroke:rgb(71, 119, 209);transform:matrix(1, 0, 0, 1, -353.28, 0);;animation:none"></path></g>
<g transform="matrix(0.9659258262890683,0.25881904510252074,-0.25881904510252074,0.9659258262890683,155.00320557343548,-77.38624049246562)" style="transform:matrix(0.965926, 0.258819, -0.258819, 0.965926, 155.003, -77.3863);;animation:none"><path stroke-width="2" stroke-opacity="0" stroke="rgb(69, 122, 210)" fill="none" d="M -480 -55.1396 C 0 -55.1396 480 55.1396 960 55.1396 C 1440 55.1396 1920 -55.1396 2400 -55.1396 C 2880 -55.1396 3360 55.1396 3840 55.1396 C 4320 55.1396 4800 -55.1396 5280 -55.1396" transform="matrix(1,0,0,1,-368.6400146484375,0)" style="fill:none;stroke:rgb(69, 122, 210);transform:matrix(1, 0, 0, 1, -368.64, 0);;animation:none"></path></g>
<g transform="matrix(0.9659258262890683,0.25881904510252074,-0.25881904510252074,0.9659258262890683,155.00320557343548,555.1337637799953)" style="transform:matrix(0.965926, 0.258819, -0.258819, 0.965926, 155.003, 555.134);;animation:none"><path stroke-width="2" stroke-opacity="0" stroke="rgb(66, 126, 211)" fill="none" d="M -480 -53.6099 C 0 -53.6099 480 53.6099 960 53.6099 C 1440 53.6099 1920 -53.6099 2400 -53.6099 C 2880 -53.6099 3360 53.6099 3840 53.6099 C 4320 53.6099 4800 -53.6099 5280 -53.6099" transform="matrix(1,0,0,1,-383.999755859375,0)" style="fill:none;stroke:rgb(66, 126, 211);transform:matrix(1, 0, 0, 1, -384, 0);;animation:none"></path></g>
<g transform="matrix(0.9659258262890683,0.25881904510252074,-0.25881904510252074,0.9659258262890683,155.00320557343548,-72.34623194754374)" style="transform:matrix(0.965926, 0.258819, -0.258819, 0.965926, 155.003, -72.3462);;animation:none"><path stroke-width="2" stroke-opacity="0" stroke="rgb(64, 129, 212)" fill="none" d="M -480 -51.9953 C 0 -51.9953 480 51.9953 960 51.9953 C 1440 51.9953 1920 -51.9953 2400 -51.9953 C 2880 -51.9953 3360 51.9953 3840 51.9953 C 4320 51.9953 4800 -51.9953 5280 -51.9953" transform="matrix(1,0,0,1,-399.3594970703125,0)" style="fill:none;stroke:rgb(64, 129, 212);transform:matrix(1, 0, 0, 1, -399.359, 0);;animation:none"></path></g>
<g transform="matrix(0.9659258262890683,0.25881904510252074,-0.25881904510252074,0.9659258262890683,155.00320557343548,550.0937857526516)" style="transform:matrix(0.965926, 0.258819, -0.258819, 0.965926, 155.003, 550.094);;animation:none"><path stroke-width="2" stroke-opacity="0" stroke="rgb(62, 132, 213)" fill="none" d="M -480 -50.2943 C 0 -50.2943 480 50.2943 960 50.2943 C 1440 50.2943 1920 -50.2943 2400 -50.2943 C 2880 -50.2943 3360 50.2943 3840 50.2943 C 4320 50.2943 4800 -50.2943 5280 -50.2943" transform="matrix(1,0,0,1,-414.719970703125,0)" style="fill:none;stroke:rgb(62, 132, 213);transform:matrix(1, 0, 0, 1, -414.72, 0);;animation:none"></path></g>
<g transform="matrix(0.9659258262890683,0.25881904510252074,-0.25881904510252074,0.9659258262890683,155.00320557343548,-67.30623866141093)" style="transform:matrix(0.965926, 0.258819, -0.258819, 0.965926, 155.003, -67.3062);;animation:none"><path stroke-width="2" stroke-opacity="0" stroke="rgb(60, 135, 214)" fill="none" d="M -480 -48.506 C 0 -48.506 480 48.506 960 48.506 C 1440 48.506 1920 -48.506 2400 -48.506 C 2880 -48.506 3360 48.506 3840 48.506 C 4320 48.506 4800 -48.506 5280 -48.506" transform="matrix(1,0,0,1,-430.07977294921875,0)" style="fill:none;stroke:rgb(60, 135, 214);transform:matrix(1, 0, 0, 1, -430.08, 0);;animation:none"></path></g>
<g transform="matrix(0.9659258262890683,0.25881904510252074,-0.25881904510252074,0.9659258262890683,155.00320557343548,545.0537466901516)" style="transform:matrix(0.965926, 0.258819, -0.258819, 0.965926, 155.003, 545.054);;animation:none"><path stroke-width="2" stroke-opacity="0" stroke="rgb(58, 138, 215)" fill="none" d="M -480 -46.6293 C 0 -46.6293 480 46.6293 960 46.6293 C 1440 46.6293 1920 -46.6293 2400 -46.6293 C 2880 -46.6293 3360 46.6293 3840 46.6293 C 4320 46.6293 4800 -46.6293 5280 -46.6293" transform="matrix(1,0,0,1,-445.43951416015625,0)" style="fill:none;stroke:rgb(58, 138, 215);transform:matrix(1, 0, 0, 1, -445.44, 0);;animation:none"></path></g>
<g transform="matrix(0.9659258262890683,0.25881904510252074,-0.25881904510252074,0.9659258262890683,155.00320557343548,-62.266230116489055)" style="transform:matrix(0.965926, 0.258819, -0.258819, 0.965926, 155.003, -62.2663);;animation:none"><path stroke-width="2" stroke-opacity="0" stroke="rgb(56, 140, 216)" fill="none" d="M -480 -44.6636 C 0 -44.6636 480 44.6636 960 44.6636 C 1440 44.6636 1920 -44.6636 2400 -44.6636 C 2880 -44.6636 3360 44.6636 3840 44.6636 C 4320 44.6636 4800 -44.6636 5280 -44.6636" transform="matrix(1,0,0,1,-460.79998779296875,0)" style="fill:none;stroke:rgb(56, 140, 216);transform:matrix(1, 0, 0, 1, -460.8, 0);;animation:none"></path></g>
<g transform="matrix(0.9659258262890683,0.25881904510252074,-0.25881904510252074,0.9659258262890683,155.00320557343548,540.0137686628078)" style="transform:matrix(0.965926, 0.258819, -0.258819, 0.965926, 155.003, 540.014);;animation:none"><path stroke-width="2" stroke-opacity="0" stroke="rgb(54, 143, 217)" fill="none" d="M -480 -42.6088 C 0 -42.6088 480 42.6088 960 42.6088 C 1440 42.6088 1920 -42.6088 2400 -42.6088 C 2880 -42.6088 3360 42.6088 3840 42.6088 C 4320 42.6088 4800 -42.6088 5280 -42.6088" transform="matrix(1,0,0,1,-476.1597900390625,0)" style="fill:none;stroke:rgb(54, 143, 217);transform:matrix(1, 0, 0, 1, -476.16, 0);;animation:none"></path></g>
<g transform="matrix(0.9659258262890683,0.25881904510252074,-0.25881904510252074,0.9659258262890683,155.00320557343548,-57.22623683035624)" style="transform:matrix(0.965926, 0.258819, -0.258819, 0.965926, 155.003, -57.2262);;animation:none"><path stroke-width="2" stroke-opacity="0" stroke="rgb(52, 145, 217)" fill="none" d="M -480 -40.465 C 0 -40.465 480 40.465 960 40.465 C 1440 40.465 1920 -40.465 2400 -40.465 C 2880 -40.465 3360 40.465 3840 40.465 C 4320 40.465 4800 -40.465 5280 -40.465" transform="matrix(1,0,0,1,-491.51953125,0)" style="fill:none;stroke:rgb(52, 145, 217);transform:matrix(1, 0, 0, 1, -491.52, 0);;animation:none"></path></g>
<g transform="matrix(0.9659258262890683,0.25881904510252074,-0.25881904510252074,0.9659258262890683,155.00320557343548,534.9737906354641)" style="transform:matrix(0.965926, 0.258819, -0.258819, 0.965926, 155.003, 534.974);;animation:none"><path stroke-width="2" stroke-opacity="0" stroke="rgb(51, 147, 218)" fill="none" d="M -480 -38.2328 C 0 -38.2328 480 38.2328 960 38.2328 C 1440 38.2328 1920 -38.2328 2400 -38.2328 C 2880 -38.2328 3360 38.2328 3840 38.2328 C 4320 38.2328 4800 -38.2328 5280 -38.2328" transform="matrix(1,0,0,1,-506.8800048828125,0)" style="fill:none;stroke:rgb(51, 147, 218);transform:matrix(1, 0, 0, 1, -506.88, 0);;animation:none"></path></g>
<g transform="matrix(0.9659258262890683,0.25881904510252074,-0.25881904510252074,0.9659258262890683,155.00320557343548,-52.18624354422343)" style="transform:matrix(0.965926, 0.258819, -0.258819, 0.965926, 155.003, -52.1862);;animation:none"><path stroke-width="2" stroke-opacity="0" stroke="rgb(49, 149, 219)" fill="none" d="M -480 -35.9135 C 0 -35.9135 480 35.9135 960 35.9135 C 1440 35.9135 1920 -35.9135 2400 -35.9135 C 2880 -35.9135 3360 35.9135 3840 35.9135 C 4320 35.9135 4800 -35.9135 5280 -35.9135" transform="matrix(1,0,0,1,-522.23974609375,0)" style="fill:none;stroke:rgb(49, 149, 219);transform:matrix(1, 0, 0, 1, -522.24, 0);;animation:none"></path></g>
<g transform="matrix(0.9659258262890683,0.25881904510252074,-0.25881904510252074,0.9659258262890683,155.00320557343548,529.9337515729641)" style="transform:matrix(0.965926, 0.258819, -0.258819, 0.965926, 155.003, 529.934);;animation:none"><path stroke-width="2" stroke-opacity="0" stroke="rgb(48, 151, 219)" fill="none" d="M -480 -33.5089 C 0 -33.5089 480 33.5089 960 33.5089 C 1440 33.5089 1920 -33.5089 2400 -33.5089 C 2880 -33.5089 3360 33.5089 3840 33.5089 C 4320 33.5089 4800 -33.5089 5280 -33.5089" transform="matrix(1,0,0,1,-537.5995483398438,0)" style="fill:none;stroke:rgb(48, 151, 219);transform:matrix(1, 0, 0, 1, -537.6, 0);;animation:none"></path></g>
<g transform="matrix(0.9659258262890683,0.25881904510252074,-0.25881904510252074,0.9659258262890683,155.00320557343548,-47.146234999301555)" style="transform:matrix(0.965926, 0.258819, -0.258819, 0.965926, 155.003, -47.1463);;animation:none"><path stroke-width="2" stroke-opacity="0" stroke="rgb(47, 152, 220)" fill="none" d="M -480 -31.0211 C 0 -31.0211 480 31.0211 960 31.0211 C 1440 31.0211 1920 -31.0211 2400 -31.0211 C 2880 -31.0211 3360 31.0211 3840 31.0211 C 4320 31.0211 4800 -31.0211 5280 -31.0211" transform="matrix(1,0,0,1,-552.9600219726562,0)" style="fill:none;stroke:rgb(47, 152, 220);transform:matrix(1, 0, 0, 1, -552.96, 0);;animation:none"></path></g>
<g transform="matrix(0.9659258262890683,0.25881904510252074,-0.25881904510252074,0.9659258262890683,155.00320557343548,524.8937735456203)" style="transform:matrix(0.965926, 0.258819, -0.258819, 0.965926, 155.003, 524.894);;animation:none"><path stroke-width="2" stroke-opacity="0" stroke="rgb(46, 153, 220)" fill="none" d="M -480 -28.4537 C 0 -28.4537 480 28.4537 960 28.4537 C 1440 28.4537 1920 -28.4537 2400 -28.4537 C 2880 -28.4537 3360 28.4537 3840 28.4537 C 4320 28.4537 4800 -28.4537 5280 -28.4537" transform="matrix(1,0,0,1,-568.3197631835938,0)" style="fill:none;stroke:rgb(46, 153, 220);transform:matrix(1, 0, 0, 1, -568.32, 0);;animation:none"></path></g>
<g transform="matrix(0.9659258262890683,0.25881904510252074,-0.25881904510252074,0.9659258262890683,155.00320557343548,-42.10624171316874)" style="transform:matrix(0.965926, 0.258819, -0.258819, 0.965926, 155.003, -42.1062);;animation:none"><path stroke-width="2" stroke-opacity="0" stroke="rgb(45, 155, 221)" fill="none" d="M -480 -25.8103 C 0 -25.8103 480 25.8103 960 25.8103 C 1440 25.8103 1920 -25.8103 2400 -25.8103 C 2880 -25.8103 3360 25.8103 3840 25.8103 C 4320 25.8103 4800 -25.8103 5280 -25.8103" transform="matrix(1,0,0,1,-583.6795654296875,0)" style="fill:none;stroke:rgb(45, 155, 221);transform:matrix(1, 0, 0, 1, -583.68, 0);;animation:none"></path></g>
<g transform="matrix(0.9659258262890683,0.25881904510252074,-0.25881904510252074,0.9659258262890683,155.00320557343548,519.8537344831203)" style="transform:matrix(0.965926, 0.258819, -0.258819, 0.965926, 155.003, 519.854);;animation:none"><path stroke-width="2" stroke-opacity="0" stroke="rgb(44, 156, 221)" fill="none" d="M -480 -23.0956 C 0 -23.0956 480 23.0956 960 23.0956 C 1440 23.0956 1920 -23.0956 2400 -23.0956 C 2880 -23.0956 3360 23.0956 3840 23.0956 C 4320 23.0956 4800 -23.0956 5280 -23.0956" transform="matrix(1,0,0,1,-599.0400390625,0)" style="fill:none;stroke:rgb(44, 156, 221);transform:matrix(1, 0, 0, 1, -599.04, 0);;animation:none"></path></g>
<g transform="matrix(0.9659258262890683,0.25881904510252074,-0.25881904510252074,0.9659258262890683,155.00320557343548,-37.06623316824687)" style="transform:matrix(0.965926, 0.258819, -0.258819, 0.965926, 155.003, -37.0662);;animation:none"><path stroke-width="2" stroke-opacity="0" stroke="rgb(44, 156, 221)" fill="none" d="M -480 -20.3151 C 0 -20.3151 480 20.3151 960 20.3151 C 1440 20.3151 1920 -20.3151 2400 -20.3151 C 2880 -20.3151 3360 20.3151 3840 20.3151 C 4320 20.3151 4800 -20.3151 5280 -20.3151" transform="matrix(1,0,0,1,-614.3997802734375,0)" style="fill:none;stroke:rgb(44, 156, 221);transform:matrix(1, 0, 0, 1, -614.4, 0);;animation:none"></path></g>
<g transform="matrix(0.9659258262890683,0.25881904510252074,-0.25881904510252074,0.9659258262890683,155.00320557343548,514.8137564557766)" style="transform:matrix(0.965926, 0.258819, -0.258819, 0.965926, 155.003, 514.814);;animation:none"><path stroke-width="2" stroke-opacity="0" stroke="rgb(43, 157, 221)" fill="none" d="M -480 -17.475 C 0 -17.475 480 17.475 960 17.475 C 1440 17.475 1920 -17.475 2400 -17.475 C 2880 -17.475 3360 17.475 3840 17.475 C 4320 17.475 4800 -17.475 5280 -17.475" transform="matrix(1,0,0,1,-629.759521484375,0)" style="fill:none;stroke:rgb(43, 157, 221);transform:matrix(1, 0, 0, 1, -629.76, 0);;animation:none"></path></g>
<g transform="matrix(0.9659258262890683,0.25881904510252074,-0.25881904510252074,0.9659258262890683,155.00320557343548,-32.026239882114055)" style="transform:matrix(0.965926, 0.258819, -0.258819, 0.965926, 155.003, -32.0263);;animation:none"><path stroke-width="2" stroke-opacity="0" stroke="rgb(43, 158, 222)" fill="none" d="M -480 -14.5822 C 0 -14.5822 480 14.5822 960 14.5822 C 1440 14.5822 1920 -14.5822 2400 -14.5822 C 2880 -14.5822 3360 14.5822 3840 14.5822 C 4320 14.5822 4800 -14.5822 5280 -14.5822" transform="matrix(1,0,0,1,-645.1199951171875,0)" style="fill:none;stroke:rgb(43, 158, 222);transform:matrix(1, 0, 0, 1, -645.12, 0);;animation:none"></path></g>
<g transform="matrix(0.9659258262890683,0.25881904510252074,-0.25881904510252074,0.9659258262890683,155.00320557343548,509.7737784284328)" style="transform:matrix(0.965926, 0.258819, -0.258819, 0.965926, 155.003, 509.774);;animation:none"><path stroke-width="2" stroke-opacity="0" stroke="rgb(43, 158, 222)" fill="none" d="M -480 -11.6448 C 0 -11.6448 480 11.6448 960 11.6448 C 1440 11.6448 1920 -11.6448 2400 -11.6448 C 2880 -11.6448 3360 11.6448 3840 11.6448 C 4320 11.6448 4800 -11.6448 5280 -11.6448" transform="matrix(1,0,0,1,-660.479736328125,0)" style="fill:none;stroke:rgb(43, 158, 222);transform:matrix(1, 0, 0, 1, -660.48, 0);;animation:none"></path></g>
<g transform="matrix(0.9659258262890683,0.25881904510252074,-0.25881904510252074,0.9659258262890683,155.00320557343548,-26.98623133719218)" style="transform:matrix(0.965926, 0.258819, -0.258819, 0.965926, 155.003, -26.9862);;animation:none"><path stroke-width="2" stroke-opacity="0" stroke="rgb(42, 159, 222)" fill="none" d="M -480 -8.67086 C 0 -8.67086 480 8.67086 960 8.67086 C 1440 8.67086 1920 -8.67086 2400 -8.67086 C 2880 -8.67086 3360 8.67086 3840 8.67086 C 4320 8.67086 4800 -8.67086 5280 -8.67086" transform="matrix(1,0,0,1,-675.8395385742188,0)" style="fill:none;stroke:rgb(42, 159, 222);transform:matrix(1, 0, 0, 1, -675.84, 0);;animation:none"></path></g>
<g transform="matrix(0.9659258262890683,0.25881904510252074,-0.25881904510252074,0.9659258262890683,155.00320557343548,504.7337393659328)" style="transform:matrix(0.965926, 0.258819, -0.258819, 0.965926, 155.003, 504.734);;animation:none"><path stroke-width="2" stroke-opacity="0" stroke="rgb(42, 159, 222)" fill="none" d="M -480 -5.66927 C 0 -5.66927 480 5.66927 960 5.66927 C 1440 5.66927 1920 -5.66927 2400 -5.66927 C 2880 -5.66927 3360 5.66927 3840 5.66927 C 4320 5.66927 4800 -5.66927 5280 -5.66927" transform="matrix(1,0,0,1,-691.2000122070312,0)" style="fill:none;stroke:rgb(42, 159, 222);transform:matrix(1, 0, 0, 1, -691.2, 0);;animation:none"></path></g>
<g transform="matrix(0.9659258262890683,0.25881904510252074,-0.25881904510252074,0.9659258262890683,155.00320557343548,-21.946238051059368)" style="transform:matrix(0.965926, 0.258819, -0.258819, 0.965926, 155.003, -21.9463);;animation:none"><path stroke-width="2" stroke-opacity="0.022727272727272728" stroke="rgb(42, 159, 222)" fill="none" d="M -480 -2.64962 C 0 -2.64962 480 2.64962 960 2.64962 C 1440 2.64962 1920 -2.64962 2400 -2.64962 C 2880 -2.64962 3360 2.64962 3840 2.64962 C 4320 2.64962 4800 -2.64962 5280 -2.64962" transform="matrix(1,0,0,1,-706.5597534179688,0)" style="fill:none;stroke:rgb(42, 159, 222);transform:matrix(1, 0, 0, 1, -706.56, 0);;animation:none"></path></g>
<g transform="matrix(0.9659258262890683,0.25881904510252074,-0.25881904510252074,0.9659258262890683,155.00320557343548,499.69376133858907)" style="transform:matrix(0.965926, 0.258819, -0.258819, 0.965926, 155.003, 499.694);;animation:none"><path stroke-width="2" stroke-opacity="0.045454545454545456" stroke="rgb(42, 159, 222)" fill="none" d="M -480 0.378572 C 0 0.378572 480 -0.378572 960 -0.378572 C 1440 -0.378572 1920 0.378572 2400 0.378572 C 2880 0.378572 3360 -0.378572 3840 -0.378572 C 4320 -0.378572 4800 0.378572 5280 0.378572" transform="matrix(1,0,0,1,-721.9194946289062,0)" style="fill:none;stroke:rgb(42, 159, 222);transform:matrix(1, 0, 0, 1, -721.919, 0);;animation:none"></path></g>
<g transform="matrix(0.9659258262890683,0.25881904510252074,-0.25881904510252074,0.9659258262890683,155.00320557343548,-16.906229506137493)" style="transform:matrix(0.965926, 0.258819, -0.258819, 0.965926, 155.003, -16.9062);;animation:none"><path stroke-width="2" stroke-opacity="0.06818181818181818" stroke="rgb(42, 159, 222)" fill="none" d="M -480 3.40568 C 0 3.40568 480 -3.40568 960 -3.40568 C 1440 -3.40568 1920 3.40568 2400 3.40568 C 2880 3.40568 3360 -3.40568 3840 -3.40568 C 4320 -3.40568 4800 3.40568 5280 3.40568" transform="matrix(1,0,0,1,-737.280029296875,0)" style="fill:none;stroke:rgb(42, 159, 222);transform:matrix(1, 0, 0, 1, -737.28, 0);;animation:none"></path></g>
<g transform="matrix(0.9659258262890683,0.25881904510252074,-0.25881904510252074,0.9659258262890683,155.00320557343548,494.6537833112453)" style="transform:matrix(0.965926, 0.258819, -0.258819, 0.965926, 155.003, 494.654);;animation:none"><path stroke-width="2" stroke-opacity="0.09090909090909091" stroke="rgb(42, 159, 222)" fill="none" d="M -480 6.42167 C 0 6.42167 480 -6.42167 960 -6.42167 C 1440 -6.42167 1920 6.42167 2400 6.42167 C 2880 6.42167 3360 -6.42167 3840 -6.42167 C 4320 -6.42167 4800 6.42167 5280 6.42167" transform="matrix(1,0,0,1,-752.6397705078125,0)" style="fill:none;stroke:rgb(42, 159, 222);transform:matrix(1, 0, 0, 1, -752.64, 0);;animation:none"></path></g>
<g transform="matrix(0.9659258262890683,0.25881904510252074,-0.25881904510252074,0.9659258262890683,155.00320557343548,-11.86623622000468)" style="transform:matrix(0.965926, 0.258819, -0.258819, 0.965926, 155.003, -11.8662);;animation:none"><path stroke-width="2" stroke-opacity="0.11363636363636363" stroke="rgb(42, 159, 222)" fill="none" d="M -480 9.41711 C 0 9.41711 480 -9.41711 960 -9.41711 C 1440 -9.41711 1920 9.41711 2400 9.41711 C 2880 9.41711 3360 -9.41711 3840 -9.41711 C 4320 -9.41711 4800 9.41711 5280 9.41711" transform="matrix(1,0,0,1,-767.99951171875,0)" style="fill:none;stroke:rgb(42, 159, 222);transform:matrix(1, 0, 0, 1, -768, 0);;animation:none"></path></g>
<g transform="matrix(0.9659258262890683,0.25881904510252074,-0.25881904510252074,0.9659258262890683,155.00320557343548,489.6137442487453)" style="transform:matrix(0.965926, 0.258819, -0.258819, 0.965926, 155.003, 489.614);;animation:none"><path stroke-width="2" stroke-opacity="0.13636363636363635" stroke="rgb(42, 160, 221)" fill="none" d="M -480 12.3829 C 0 12.3829 480 -12.3829 960 -12.3829 C 1440 -12.3829 1920 12.3829 2400 12.3829 C 2880 12.3829 3360 -12.3829 3840 -12.3829 C 4320 -12.3829 4800 12.3829 5280 12.3829" transform="matrix(1,0,0,1,-783.3600463867188,0)" style="fill:none;stroke:rgb(42, 160, 221);transform:matrix(1, 0, 0, 1, -783.36, 0);;animation:none"></path></g>
<g transform="matrix(0.9659258262890683,0.25881904510252074,-0.25881904510252074,0.9659258262890683,155.00320557343548,-6.8262429338718675)" style="transform:matrix(0.965926, 0.258819, -0.258819, 0.965926, 155.003, -6.82626);;animation:none"><path stroke-width="2" stroke-opacity="0.1590909090909091" stroke="rgb(42, 160, 221)" fill="none" d="M -480 15.3099 C 0 15.3099 480 -15.3099 960 -15.3099 C 1440 -15.3099 1920 15.3099 2400 15.3099 C 2880 15.3099 3360 -15.3099 3840 -15.3099 C 4320 -15.3099 4800 15.3099 5280 15.3099" transform="matrix(1,0,0,1,-798.7197875976562,0)" style="fill:none;stroke:rgb(42, 160, 221);transform:matrix(1, 0, 0, 1, -798.72, 0);;animation:none"></path></g>
<g transform="matrix(0.9659258262890683,0.25881904510252074,-0.25881904510252074,0.9659258262890683,155.00320557343548,484.57376622140157)" style="transform:matrix(0.965926, 0.258819, -0.258819, 0.965926, 155.003, 484.574);;animation:none"><path stroke-width="2" stroke-opacity="0.18181818181818182" stroke="rgb(42, 161, 220)" fill="none" d="M -480 18.1901 C 0 18.1901 480 -18.1901 960 -18.1901 C 1440 -18.1901 1920 18.1901 2400 18.1901 C 2880 18.1901 3360 -18.1901 3840 -18.1901 C 4320 -18.1901 4800 18.1901 5280 18.1901" transform="matrix(1,0,0,1,-814.0795288085938,0)" style="fill:none;stroke:rgb(42, 161, 220);transform:matrix(1, 0, 0, 1, -814.08, 0);;animation:none"></path></g>
<g transform="matrix(0.9659258262890683,0.25881904510252074,-0.25881904510252074,0.9659258262890683,155.00320557343548,-1.7862343889499925)" style="transform:matrix(0.965926, 0.258819, -0.258819, 0.965926, 155.003, -1.78622);;animation:none"><path stroke-width="2" stroke-opacity="0.20454545454545456" stroke="rgb(42, 161, 220)" fill="none" d="M -480 21.016 C 0 21.016 480 -21.016 960 -21.016 C 1440 -21.016 1920 21.016 2400 21.016 C 2880 21.016 3360 -21.016 3840 -21.016 C 4320 -21.016 4800 21.016 5280 21.016" transform="matrix(1,0,0,1,-829.43994140625,0)" style="fill:none;stroke:rgb(42, 161, 220);transform:matrix(1, 0, 0, 1, -829.44, 0);;animation:none"></path></g>
<g transform="matrix(0.9659258262890683,0.25881904510252074,-0.25881904510252074,0.9659258262890683,155.00320557343548,479.5337881940578)" style="transform:matrix(0.965926, 0.258819, -0.258819, 0.965926, 155.003, 479.534);;animation:none"><path stroke-width="2" stroke-opacity="0.22727272727272727" stroke="rgb(42, 162, 219)" fill="none" d="M -480 23.7806 C 0 23.7806 480 -23.7806 960 -23.7806 C 1440 -23.7806 1920 23.7806 2400 23.7806 C 2880 23.7806 3360 -23.7806 3840 -23.7806 C 4320 -23.7806 4800 23.7806 5280 23.7806" transform="matrix(1,0,0,1,-844.7998046875,0)" style="fill:none;stroke:rgb(42, 162, 219);transform:matrix(1, 0, 0, 1, -844.8, 0);;animation:none"></path></g>
<g transform="matrix(0.9659258262890683,0.25881904510252074,-0.25881904510252074,0.9659258262890683,155.00320557343548,3.25375889718282)" style="transform:matrix(0.965926, 0.258819, -0.258819, 0.965926, 155.003, 3.25376);;animation:none"><path stroke-width="2" stroke-opacity="0.25" stroke="rgb(41, 163, 218)" fill="none" d="M -480 26.4779 C 0 26.4779 480 -26.4779 960 -26.4779 C 1440 -26.4779 1920 26.4779 2400 26.4779 C 2880 26.4779 3360 -26.4779 3840 -26.4779 C 4320 -26.4779 4800 26.4779 5280 26.4779" transform="matrix(1,0,0,1,-860.1595458984375,0)" style="fill:none;stroke:rgb(41, 163, 218);transform:matrix(1, 0, 0, 1, -860.16, 0);;animation:none"></path></g>
<g transform="matrix(0.9659258262890683,0.25881904510252074,-0.25881904510252074,0.9659258262890683,155.00320557343548,474.4937491315578)" style="transform:matrix(0.965926, 0.258819, -0.258819, 0.965926, 155.003, 474.494);;animation:none"><path stroke-width="2" stroke-opacity="0.2727272727272727" stroke="rgb(41, 164, 217)" fill="none" d="M -480 29.1028 C 0 29.1028 480 -29.1028 960 -29.1028 C 1440 -29.1028 1920 29.1028 2400 29.1028 C 2880 29.1028 3360 -29.1028 3840 -29.1028 C 4320 -29.1028 4800 29.1028 5280 29.1028" transform="matrix(1,0,0,1,-875.5199584960938,0)" style="fill:none;stroke:rgb(41, 164, 217);transform:matrix(1, 0, 0, 1, -875.52, 0);;animation:none"></path></g>
<g transform="matrix(0.9659258262890683,0.25881904510252074,-0.25881904510252074,0.9659258262890683,155.00320557343548,8.293767442104695)" style="transform:matrix(0.965926, 0.258819, -0.258819, 0.965926, 155.003, 8.2938);;animation:none"><path stroke-width="2" stroke-opacity="0.29545454545454547" stroke="rgb(41, 166, 215)" fill="none" d="M -480 31.6506 C 0 31.6506 480 -31.6506 960 -31.6506 C 1440 -31.6506 1920 31.6506 2400 31.6506 C 2880 31.6506 3360 -31.6506 3840 -31.6506 C 4320 -31.6506 4800 31.6506 5280 31.6506" transform="matrix(1,0,0,1,-890.8798217773438,0)" style="fill:none;stroke:rgb(41, 166, 215);transform:matrix(1, 0, 0, 1, -890.88, 0);;animation:none"></path></g>
<g transform="matrix(0.9659258262890683,0.25881904510252074,-0.25881904510252074,0.9659258262890683,155.00320557343548,469.45377110421407)" style="transform:matrix(0.965926, 0.258819, -0.258819, 0.965926, 155.003, 469.454);;animation:none"><path stroke-width="2" stroke-opacity="0.3181818181818182" stroke="rgb(41, 167, 214)" fill="none" d="M -480 34.1178 C 0 34.1178 480 -34.1178 960 -34.1178 C 1440 -34.1178 1920 34.1178 2400 34.1178 C 2880 34.1178 3360 -34.1178 3840 -34.1178 C 4320 -34.1178 4800 34.1178 5280 34.1178" transform="matrix(1,0,0,1,-906.2395629882812,0)" style="fill:none;stroke:rgb(41, 167, 214);transform:matrix(1, 0, 0, 1, -906.24, 0);;animation:none"></path></g>
<g transform="matrix(0.9659258262890683,0.25881904510252074,-0.25881904510252074,0.9659258262890683,155.00320557343548,13.333760728237507)" style="transform:matrix(0.965926, 0.258819, -0.258819, 0.965926, 155.003, 13.3338);;animation:none"><path stroke-width="2" stroke-opacity="0.3409090909090909" stroke="rgb(41, 168, 213)" fill="none" d="M -480 36.5014 C 0 36.5014 480 -36.5014 960 -36.5014 C 1440 -36.5014 1920 36.5014 2400 36.5014 C 2880 36.5014 3360 -36.5014 3840 -36.5014 C 4320 -36.5014 4800 36.5014 5280 36.5014" transform="matrix(1,0,0,1,-921.5999755859375,0)" style="fill:none;stroke:rgb(41, 168, 213);transform:matrix(1, 0, 0, 1, -921.6, 0);;animation:none"></path></g>
<g transform="matrix(0.9659258262890683,0.25881904510252074,-0.25881904510252074,0.9659258262890683,155.00320557343548,464.4137930768703)" style="transform:matrix(0.965926, 0.258819, -0.258819, 0.965926, 155.003, 464.414);;animation:none"><path stroke-width="2" stroke-opacity="0.36363636363636365" stroke="rgb(41, 170, 211)" fill="none" d="M -480 38.799 C 0 38.799 480 -38.799 960 -38.799 C 1440 -38.799 1920 38.799 2400 38.799 C 2880 38.799 3360 -38.799 3840 -38.799 C 4320 -38.799 4800 38.799 5280 38.799" transform="matrix(1,0,0,1,-936.959716796875,0)" style="fill:none;stroke:rgb(41, 170, 211);transform:matrix(1, 0, 0, 1, -936.96, 0);;animation:none"></path></g>
<g transform="matrix(0.9659258262890683,0.25881904510252074,-0.25881904510252074,0.9659258262890683,155.00320557343548,18.373769273159382)" style="transform:matrix(0.965926, 0.258819, -0.258819, 0.965926, 155.003, 18.3738);;animation:none"><path stroke-width="2" stroke-opacity="0.38636363636363635" stroke="rgb(40, 172, 209)" fill="none" d="M -480 41.0091 C 0 41.0091 480 -41.0091 960 -41.0091 C 1440 -41.0091 1920 41.0091 2400 41.0091 C 2880 41.0091 3360 -41.0091 3840 -41.0091 C 4320 -41.0091 4800 41.0091 5280 41.0091" transform="matrix(1,0,0,1,-952.319580078125,0)" style="fill:none;stroke:rgb(40, 172, 209);transform:matrix(1, 0, 0, 1, -952.32, 0);;animation:none"></path></g>
<g transform="matrix(0.9659258262890683,0.25881904510252074,-0.25881904510252074,0.9659258262890683,155.00320557343548,459.3737540143703)" style="transform:matrix(0.965926, 0.258819, -0.258819, 0.965926, 155.003, 459.374);;animation:none"><path stroke-width="2" stroke-opacity="0.4090909090909091" stroke="rgb(40, 174, 207)" fill="none" d="M -480 43.1308 C 0 43.1308 480 -43.1308 960 -43.1308 C 1440 -43.1308 1920 43.1308 2400 43.1308 C 2880 43.1308 3360 -43.1308 3840 -43.1308 C 4320 -43.1308 4800 43.1308 5280 43.1308" transform="matrix(1,0,0,1,-967.6799926757812,0)" style="fill:none;stroke:rgb(40, 174, 207);transform:matrix(1, 0, 0, 1, -967.68, 0);;animation:none"></path></g>
<g transform="matrix(0.9659258262890683,0.25881904510252074,-0.25881904510252074,0.9659258262890683,155.00320557343548,23.413762559292195)" style="transform:matrix(0.965926, 0.258819, -0.258819, 0.965926, 155.003, 23.4138);;animation:none"><path stroke-width="2" stroke-opacity="0.4318181818181818" stroke="rgb(40, 176, 205)" fill="none" d="M -480 45.1633 C 0 45.1633 480 -45.1633 960 -45.1633 C 1440 -45.1633 1920 45.1633 2400 45.1633 C 2880 45.1633 3360 -45.1633 3840 -45.1633 C 4320 -45.1633 4800 45.1633 5280 45.1633" transform="matrix(1,0,0,1,-983.0397338867188,0)" style="fill:none;stroke:rgb(40, 176, 205);transform:matrix(1, 0, 0, 1, -983.04, 0);;animation:none"></path></g>
<g transform="matrix(0.9659258262890683,0.25881904510252074,-0.25881904510252074,0.9659258262890683,155.00320557343548,454.33377598702657)" style="transform:matrix(0.965926, 0.258819, -0.258819, 0.965926, 155.003, 454.334);;animation:none"><path stroke-width="2" stroke-opacity="0.45454545454545453" stroke="rgb(39, 179, 202)" fill="none" d="M -480 47.1067 C 0 47.1067 480 -47.1067 960 -47.1067 C 1440 -47.1067 1920 47.1067 2400 47.1067 C 2880 47.1067 3360 -47.1067 3840 -47.1067 C 4320 -47.1067 4800 47.1067 5280 47.1067" transform="matrix(1,0,0,1,-998.3995361328125,0)" style="fill:none;stroke:rgb(39, 179, 202);transform:matrix(1, 0, 0, 1, -998.4, 0);;animation:none"></path></g>
<g transform="matrix(0.9659258262890683,0.25881904510252074,-0.25881904510252074,0.9659258262890683,155.00320557343548,28.45377110421407)" style="transform:matrix(0.965926, 0.258819, -0.258819, 0.965926, 155.003, 28.4538);;animation:none"><path stroke-width="2" stroke-opacity="0.4772727272727273" stroke="rgb(39, 181, 200)" fill="none" d="M -480 48.9613 C 0 48.9613 480 -48.9613 960 -48.9613 C 1440 -48.9613 1920 48.9613 2400 48.9613 C 2880 48.9613 3360 -48.9613 3840 -48.9613 C 4320 -48.9613 4800 48.9613 5280 48.9613" transform="matrix(1,0,0,1,-1013.760009765625,0)" style="fill:none;stroke:rgb(39, 181, 200);transform:matrix(1, 0, 0, 1, -1013.76, 0);;animation:none"></path></g>
<g transform="matrix(0.9659258262890683,0.25881904510252074,-0.25881904510252074,0.9659258262890683,155.00320557343548,449.29373692452657)" style="transform:matrix(0.965926, 0.258819, -0.258819, 0.965926, 155.003, 449.294);;animation:none"><path stroke-width="2" stroke-opacity="0.5" stroke="rgb(39, 184, 197)" fill="none" d="M -480 50.7277 C 0 50.7277 480 -50.7277 960 -50.7277 C 1440 -50.7277 1920 50.7277 2400 50.7277 C 2880 50.7277 3360 -50.7277 3840 -50.7277 C 4320 -50.7277 4800 50.7277 5280 50.7277" transform="matrix(1,0,0,1,-1029.1197509765625,0)" style="fill:none;stroke:rgb(39, 184, 197);transform:matrix(1, 0, 0, 1, -1029.12, 0);;animation:none"></path></g>
<g transform="matrix(0.9659258262890683,0.25881904510252074,-0.25881904510252074,0.9659258262890683,155.00320557343548,33.49374913155782)" style="transform:matrix(0.965926, 0.258819, -0.258819, 0.965926, 155.003, 33.4937);;animation:none"><path stroke-width="2" stroke-opacity="0.5227272727272727" stroke="rgb(38, 187, 194)" fill="none" d="M -480 52.4069 C 0 52.4069 480 -52.4069 960 -52.4069 C 1440 -52.4069 1920 52.4069 2400 52.4069 C 2880 52.4069 3360 -52.4069 3840 -52.4069 C 4320 -52.4069 4800 52.4069 5280 52.4069" transform="matrix(1,0,0,1,-1044.4794921875,0)" style="fill:none;stroke:rgb(38, 187, 194);transform:matrix(1, 0, 0, 1, -1044.48, 0);;animation:none"></path></g>
<g transform="matrix(0.9659258262890683,0.25881904510252074,-0.25881904510252074,0.9659258262890683,155.00320557343548,444.2537588971828)" style="transform:matrix(0.965926, 0.258819, -0.258819, 0.965926, 155.003, 444.254);;animation:none"><path stroke-width="2" stroke-opacity="0.5454545454545454" stroke="rgb(38, 190, 191)" fill="none" d="M -480 54.0002 C 0 54.0002 480 -54.0002 960 -54.0002 C 1440 -54.0002 1920 54.0002 2400 54.0002 C 2880 54.0002 3360 -54.0002 3840 -54.0002 C 4320 -54.0002 4800 54.0002 5280 54.0002" transform="matrix(1,0,0,1,-1059.8399658203125,0)" style="fill:none;stroke:rgb(38, 190, 191);transform:matrix(1, 0, 0, 1, -1059.84, 0);;animation:none"></path></g>
<g transform="matrix(0.9659258262890683,0.25881904510252074,-0.25881904510252074,0.9659258262890683,155.00320557343548,38.533757676479695)" style="transform:matrix(0.965926, 0.258819, -0.258819, 0.965926, 155.003, 38.5338);;animation:none"><path stroke-width="2" stroke-opacity="0.5681818181818182" stroke="rgb(38, 193, 188)" fill="none" d="M -480 55.5089 C 0 55.5089 480 -55.5089 960 -55.5089 C 1440 -55.5089 1920 55.5089 2400 55.5089 C 2880 55.5089 3360 -55.5089 3840 -55.5089 C 4320 -55.5089 4800 55.5089 5280 55.5089" transform="matrix(1,0,0,1,-1075.19970703125,0)" style="fill:none;stroke:rgb(38, 193, 188);transform:matrix(1, 0, 0, 1, -1075.2, 0);;animation:none"></path></g>
<g transform="matrix(0.9659258262890683,0.25881904510252074,-0.25881904510252074,0.9659258262890683,155.00320557343548,439.21378086983907)" style="transform:matrix(0.965926, 0.258819, -0.258819, 0.965926, 155.003, 439.214);;animation:none"><path stroke-width="2" stroke-opacity="0.5909090909090909" stroke="rgb(37, 196, 185)" fill="none" d="M -480 56.9345 C 0 56.9345 480 -56.9345 960 -56.9345 C 1440 -56.9345 1920 56.9345 2400 56.9345 C 2880 56.9345 3360 -56.9345 3840 -56.9345 C 4320 -56.9345 4800 56.9345 5280 56.9345" transform="matrix(1,0,0,1,-1090.5594482421875,0)" style="fill:none;stroke:rgb(37, 196, 185);transform:matrix(1, 0, 0, 1, -1090.56, 0);;animation:none"></path></g>
<g transform="matrix(0.9659258262890683,0.25881904510252074,-0.25881904510252074,0.9659258262890683,155.00320557343548,43.57376622140157)" style="transform:matrix(0.965926, 0.258819, -0.258819, 0.965926, 155.003, 43.5738);;animation:none"><path stroke-width="2" stroke-opacity="0.6136363636363636" stroke="rgb(37, 198, 183)" fill="none" d="M -480 58.2788 C 0 58.2788 480 -58.2788 960 -58.2788 C 1440 -58.2788 1920 58.2788 2400 58.2788 C 2880 58.2788 3360 -58.2788 3840 -58.2788 C 4320 -58.2788 4800 58.2788 5280 58.2788" transform="matrix(1,0,0,1,-1105.9200439453125,0)" style="fill:none;stroke:rgb(37, 198, 183);transform:matrix(1, 0, 0, 1, -1105.92, 0);;animation:none"></path></g>
<g transform="matrix(0.9659258262890683,0.25881904510252074,-0.25881904510252074,0.9659258262890683,155.00320557343548,434.17374180733907)" style="transform:matrix(0.965926, 0.258819, -0.258819, 0.965926, 155.003, 434.174);;animation:none"><path stroke-width="2" stroke-opacity="0.6363636363636364" stroke="rgb(36, 201, 180)" fill="none" d="M -480 59.5435 C 0 59.5435 480 -59.5435 960 -59.5435 C 1440 -59.5435 1920 59.5435 2400 59.5435 C 2880 59.5435 3360 -59.5435 3840 -59.5435 C 4320 -59.5435 4800 59.5435 5280 59.5435" transform="matrix(1,0,0,1,-1121.27978515625,0)" style="fill:none;stroke:rgb(36, 201, 180);transform:matrix(1, 0, 0, 1, -1121.28, 0);;animation:none"></path></g>
<g transform="matrix(0.9659258262890683,0.25881904510252074,-0.25881904510252074,0.9659258262890683,155.00320557343548,48.613774766323445)" style="transform:matrix(0.965926, 0.258819, -0.258819, 0.965926, 155.003, 48.6137);;animation:none"><path stroke-width="2" stroke-opacity="0.6590909090909091" stroke="rgb(36, 204, 177)" fill="none" d="M -480 60.7305 C 0 60.7305 480 -60.7305 960 -60.7305 C 1440 -60.7305 1920 60.7305 2400 60.7305 C 2880 60.7305 3360 -60.7305 3840 -60.7305 C 4320 -60.7305 4800 60.7305 5280 60.7305" transform="matrix(1,0,0,1,-1136.6395263671875,0)" style="fill:none;stroke:rgb(36, 204, 177);transform:matrix(1, 0, 0, 1, -1136.64, 0);;animation:none"></path></g>
<g></g></g><!-- [ldio] generated by https://loading.io --></svg>